<?xml version="1.0" encoding="utf-8"?>
<!-- Generator: Adobe Illustrator 19.2.0, SVG Export Plug-In . SVG Version: 6.00 Build 0)  -->
<svg version="1.1" id="Layer_1" xmlns="http://www.w3.org/2000/svg" xmlns:xlink="http://www.w3.org/1999/xlink" x="0px" y="0px"
	 viewBox="0 0 34.4 34.4" style="enable-background:new 0 0 34.4 34.4;" xml:space="preserve">
<style type="text/css">
	.st0{fill:#FFFFFF;}
</style>
<title>accounticon</title>
<path class="st0" d="M23.8,13.3c0,3.7-2.9,6.7-6.6,6.7c-3.7,0-6.7-2.9-6.7-6.6c0-3.7,2.9-6.7,6.6-6.7C20.8,6.7,23.8,9.6,23.8,13.3
	C23.8,13.3,23.8,13.3,23.8,13.3z M17.1,10.1c-1.8,0-3.3,1.5-3.3,3.3c0,1.8,1.5,3.3,3.3,3.3s3.3-1.5,3.3-3.3c0,0,0,0,0,0
	C20.4,11.5,18.9,10.1,17.1,10.1L17.1,10.1z M17,0C7.5,0.1-0.1,7.9,0,17.4c0.1,9.5,7.9,17.1,17.4,17c9.5-0.1,17.1-7.9,17-17.4
	C34.3,7.5,26.5-0.1,17,0L17,0z M8.4,28L8.4,28c0.9-1.4,2.2-2.4,3.7-2.7c1.4-0.5,2,0.5,5.2,0.5s3.7-1.1,5.2-0.6
	c1.5,0.3,2.8,1.3,3.7,2.5l0.1,0.1C21.1,32.1,13.6,32.2,8.4,28z M28.5,25.3l-0.1-0.1c-1.4-1.8-3.5-3.1-5.9-3.4
	c-2.4-0.4-3.2,0.7-5.3,0.7s-2.9-1-5.3-0.5c-2.3,0.4-4.4,1.7-5.8,3.6l-0.1,0.1C1.5,19.4,2.8,10.7,8.9,6.1C15,1.5,23.7,2.8,28.3,8.9
	C31.9,13.7,32,20.4,28.5,25.3L28.5,25.3z"/>
</svg>
