<?xml version="1.0" encoding="utf-8"?>
<!-- Generator: Adobe Illustrator 19.2.0, SVG Export Plug-In . SVG Version: 6.00 Build 0)  -->
<svg version="1.1" id="Layer_1" xmlns="http://www.w3.org/2000/svg" xmlns:xlink="http://www.w3.org/1999/xlink" x="0px" y="0px"
	 viewBox="0 0 23.6 23.6" style="enable-background:new 0 0 23.6 23.6;" xml:space="preserve">
<style type="text/css">
	.st0{fill:url(#SVGID_1_);}
	.st1{fill:#FFFFFF;}
</style>
<title>Untitled-4</title>
<linearGradient id="SVGID_1_" gradientUnits="userSpaceOnUse" x1="3.2488" y1="3.5047" x2="19.9988" y2="19.7547">
	<stop  offset="0" style="stop-color:#B3B3B3"/>
	<stop  offset="1" style="stop-color:#333333"/>
</linearGradient>
<circle class="st0" cx="11.8" cy="11.8" r="11.8"/>
<g>
	<path class="st1" d="M3.4,15.7V7.9h1.2l1.6,4.4h0V7.9h1.2v7.8H6.4l-1.7-4.9h0v4.9H3.4z"/>
	<path class="st1" d="M8.8,15.7V7.9h3.6v1.2h-2.2v2h1.7v1.2h-1.7v2.3h2.4v1.2H8.8z"/>
	<path class="st1" d="M16.2,7.9h1.1l0.9,4.9h0L19,7.9h1.2l-1.4,7.8h-1.1l-1-5.1h0l-0.9,5.1h-1.1l-1.5-7.8h1.2l0.8,4.9h0L16.2,7.9z"
		/>
</g>
</svg>
