<svg id="Layer_1" data-name="Layer 1" xmlns="http://www.w3.org/2000/svg" viewBox="0 0 23.64 23.64"><defs><style>.cls-1{fill:#00b7cf;}.cls-2{fill:#fff;}</style></defs><title>Untitled-4</title><circle class="cls-1" cx="11.82" cy="11.82" r="11.82"/><path class="cls-2" d="M594.84,845.18c-2.14-.47-4-1.68-4-3.8a3.79,3.79,0,0,1,4-3.86v-1.36h1.4v1.36a5.51,5.51,0,0,1,3.88,1.87l-1.48,1.46a4.27,4.27,0,0,0-2.4-1.44v3.78c2.67,0.79,4.18,1.93,4.18,4.31s-1.89,3.56-4.18,3.67v2.27h-1.4v-2.27a5.71,5.71,0,0,1-4.18-2.25l1.63-1.4a3.74,3.74,0,0,0,2.55,1.76v-4.1Zm0-5.77c-1.15.08-1.93,0.57-1.93,1.8,0,0.87.59,1.23,1.93,1.61v-3.4Zm1.4,9.87c1,0,2.06-.38,2.06-1.72,0-1.1-.83-1.65-2.06-2v3.69Z" transform="translate(-583.72 -832.98)"/></svg>